{
  "asset": {
    "version": "2.0",
    "generator": "THREE.GLTFExporter"
  },
  "scenes": [
    {
      "nodes": [
        2
      ],
      "name": "Scene"
    }
  ],
  "scene": 0,
  "nodes": [
    {
      "matrix": [
        1,
        0,
        0,
        0,
        0,
        1,
        0,
        0,
        0,
        0,
        1,
        0,
        0.25475635547366104,
        13.333290555040133,
        2.445726378528588,
        1
      ],
      "name": "mesh_0",
      "mesh": 0
    },
    {
      "children": [
        0
      ]
    },
    {
      "matrix": [
        0.6720004144623014,
        0,
        0,
        0,
        0,
        0.6720004144623014,
        0,
        0,
        0,
        0,
        0.6720004144623014,
        0,
        0.7603098042650009,
        -3.4683735148792385,
        -3.9511987904712567,
        1
      ],
      "name": "lm.gltf",
      "children": [
        1
      ]
    }
  ],
  "bufferViews": [
    {
      "buffer": 0,
      "byteOffset": 0,
      "byteLength": 16416,
      "target": 34962,
      "byteStride": 12
    },
    {
      "buffer": 0,
      "byteOffset": 16416,
      "byteLength": 16416,
      "target": 34962,
      "byteStride": 12
    },
    {
      "buffer": 0,
      "byteOffset": 32832,
      "byteLength": 2736,
      "target": 34963
    }
  ],
  "buffers": [
    {
      "byteLength": 35568,
      "uri": "data:application/octet-stream;base64,"
    }
  ],
  "accessors": [
    {
      "bufferView": 0,
      "componentType": 5126,
      "count": 1368,
      "max": [
        20.44476890563965,
        17.21129608154297,
        11.614686012268066
      ],
      "min": [
        -22.91754150390625,
        -7.842772960662842,
        -0.17080800235271454
      ],
      "type": "VEC3"
    },
    {
      "bufferView": 1,
      "componentType": 5126,
      "count": 1368,
      "max": [
        1,
        1,
        1
      ],
      "min": [
        -1,
        -1,
        0
      ],
      "type": "VEC3"
    },
    {
      "bufferView": 2,
      "componentType": 5123,
      "count": 1368,
      "max": [
        1367
      ],
      "min": [
        0
      ],
      "type": "SCALAR"
    }
  ],
  "materials": [
    {
      "pbrMetallicRoughness": {
        "baseColorFactor": [
          0,
          0,
          0,
          1
        ],
        "metallicFactor": 0.5,
        "roughnessFactor": 0.5
      }
    }
  ],
  "meshes": [
    {
      "primitives": [
        {
          "mode": 4,
          "attributes": {
            "POSITION": 0,
            "NORMAL": 1
          },
          "indices": 2,
          "material": 0
        }
      ]
    }
  ]
}