{
  "asset": {
    "version": "2.0",
    "generator": "THREE.GLTFExporter"
  },
  "scenes": [
    {
      "nodes": [
        1
      ],
      "name": "Scene"
    }
  ],
  "scene": 0,
  "nodes": [
    {
      "matrix": [
        39.9999999961257,
        0.0005509463201134688,
        -0.00008001174618025398,
        0,
        -0.0005509646105624738,
        39.99999894942501,
        -0.009151089320953338,
        0,
        0.0000798857001041353,
        0.009151090422158,
        39.99999895313952,
        0,
        -5.225113629933907,
        0,
        0,
        1
      ],
      "mesh": 0
    },
    {
      "name": "pc1min.obj",
      "children": [
        0
      ]
    }
  ],
  "bufferViews": [
    {
      "buffer": 0,
      "byteOffset": 0,
      "byteLength": 15552,
      "target": 34962,
      "byteStride": 12
    },
    {
      "buffer": 0,
      "byteOffset": 15552,
      "byteLength": 15552,
      "target": 34962,
      "byteStride": 12
    }
  ],
  "buffers": [
    {
      "byteLength": 31104,
      "uri": "data:application/octet-stream;base64,"
    }
  ],
  "accessors": [
    {
      "bufferView": 0,
      "componentType": 5126,
      "count": 1296,
      "max": [
        0.43911901116371155,
        0.08722300082445145,
        0.05419199913740158
      ],
      "min": [
        -0.18726299703121185,
        -0.08722099661827087,
        -0.11502700299024582
      ],
      "type": "VEC3"
    },
    {
      "bufferView": 1,
      "componentType": 5126,
      "count": 1296,
      "max": [
        1,
        1,
        1
      ],
      "min": [
        -1,
        -1,
        0
      ],
      "type": "VEC3"
    }
  ],
  "materials": [
    {
      "pbrMetallicRoughness": {
        "baseColorFactor": [
          0,
          0,
          0,
          1
        ],
        "metallicFactor": 0.5,
        "roughnessFactor": 0.5
      },
      "doubleSided": true
    }
  ],
  "meshes": [
    {
      "primitives": [
        {
          "mode": 4,
          "attributes": {
            "POSITION": 0,
            "NORMAL": 1
          },
          "material": 0
        }
      ]
    }
  ]
}