{
  "asset": {
    "version": "2.0",
    "generator": "THREE.GLTFExporter"
  },
  "scenes": [
    {
      "nodes": [
        1,
        3
      ],
      "name": "Scene"
    }
  ],
  "scene": 0,
  "nodes": [
    {},
    {
      "matrix": [
        0.6720004144623014,
        0,
        0,
        0,
        0,
        0.6720004144623014,
        0,
        0,
        0,
        0,
        0.6720004144623014,
        0,
        0.7603098042650009,
        -3.4683735148792385,
        -3.9511987904712567,
        1
      ],
      "name": "lm.gltf",
      "children": [
        0
      ]
    },
    {
      "matrix": [
        1,
        0,
        0,
        0,
        0,
        -0.9928162443928945,
        -0.11964909055061328,
        0,
        0,
        0.11964909055061328,
        -0.9928162443928945,
        0,
        -0.09591173908043495,
        0.10342843413195128,
        -0.017903385208711434,
        1
      ],
      "mesh": 0
    },
    {
      "matrix": [
        30,
        0,
        0,
        0,
        0,
        30,
        0,
        0,
        0,
        0,
        30,
        0,
        0.08379767885430178,
        0,
        -0.0012570594636700516,
        1
      ],
      "name": "pc1max.obj",
      "children": [
        2
      ]
    }
  ],
  "bufferViews": [
    {
      "buffer": 0,
      "byteOffset": 0,
      "byteLength": 15552,
      "target": 34962,
      "byteStride": 12
    },
    {
      "buffer": 0,
      "byteOffset": 15552,
      "byteLength": 15552,
      "target": 34962,
      "byteStride": 12
    }
  ],
  "buffers": [
    {
      "byteLength": 31104,
      "uri": "data:application/octet-stream;base64,"
    }
  ],
  "accessors": [
    {
      "bufferView": 0,
      "componentType": 5126,
      "count": 1296,
      "max": [
        0.46514299511909485,
        0.11309300363063812,
        0.0832810029387474
      ],
      "min": [
        -0.23163600265979767,
        -0.11302399635314941,
        -0.05039900168776512
      ],
      "type": "VEC3"
    },
    {
      "bufferView": 1,
      "componentType": 5126,
      "count": 1296,
      "max": [
        1,
        1,
        1
      ],
      "min": [
        -1,
        -1,
        0
      ],
      "type": "VEC3"
    }
  ],
  "materials": [
    {
      "pbrMetallicRoughness": {
        "baseColorFactor": [
          0,
          0,
          0,
          1
        ],
        "metallicFactor": 0.5,
        "roughnessFactor": 0.5
      }
    }
  ],
  "meshes": [
    {
      "primitives": [
        {
          "mode": 4,
          "attributes": {
            "POSITION": 0,
            "NORMAL": 1
          },
          "material": 0
        }
      ]
    }
  ]
}