{
  "asset": {
    "version": "2.0",
    "generator": "THREE.GLTFExporter"
  },
  "scenes": [
    {
      "nodes": [
        1
      ],
      "name": "Scene"
    }
  ],
  "scene": 0,
  "nodes": [
    {
      "mesh": 0
    },
    {
      "matrix": [
        37.97685142672564,
        0,
        1.3261808746950368,
        0,
        0,
        38,
        0,
        0,
        -1.3261808746950368,
        0,
        37.97685142672564,
        0,
        -4.460398475366443,
        -2.000056399909375e-7,
        0,
        1
      ],
      "name": "PC1max.obj",
      "children": [
        0
      ]
    }
  ],
  "bufferViews": [
    {
      "buffer": 0,
      "byteOffset": 0,
      "byteLength": 14256,
      "target": 34962,
      "byteStride": 12
    },
    {
      "buffer": 0,
      "byteOffset": 14256,
      "byteLength": 14256,
      "target": 34962,
      "byteStride": 12
    }
  ],
  "buffers": [
    {
      "byteLength": 28512,
      "uri": "data:application/octet-stream;base64,"
    }
  ],
  "accessors": [
    {
      "bufferView": 0,
      "componentType": 5126,
      "count": 1188,
      "max": [
        0.4446679949760437,
        0.11083699762821198,
        0.060708001255989075
      ],
      "min": [
        -0.2183309942483902,
        -0.11083699762821198,
        -0.1021059975028038
      ],
      "type": "VEC3"
    },
    {
      "bufferView": 1,
      "componentType": 5126,
      "count": 1188,
      "max": [
        1,
        1,
        1
      ],
      "min": [
        -1,
        -1,
        0
      ],
      "type": "VEC3"
    }
  ],
  "materials": [
    {
      "pbrMetallicRoughness": {
        "baseColorFactor": [
          0,
          0,
          0,
          1
        ],
        "metallicFactor": 0.5,
        "roughnessFactor": 0.5
      },
      "doubleSided": true
    }
  ],
  "meshes": [
    {
      "primitives": [
        {
          "mode": 4,
          "attributes": {
            "POSITION": 0,
            "NORMAL": 1
          },
          "material": 0
        }
      ]
    }
  ]
}