{
  "asset": {
    "version": "2.0",
    "generator": "THREE.GLTFExporter"
  },
  "scenes": [
    {
      "nodes": [
        1
      ],
      "name": "Scene"
    }
  ],
  "scene": 0,
  "nodes": [
    {
      "matrix": [
        0.9993908270190958,
        0,
        0.03489949670250097,
        0,
        0,
        1,
        0,
        0,
        -0.03489949670250097,
        0,
        0.9993908270190958,
        0,
        0,
        0,
        0,
        1
      ],
      "mesh": 0
    },
    {
      "matrix": [
        38,
        0,
        0,
        0,
        0,
        38,
        0,
        0,
        0,
        0,
        38,
        0,
        -5.532460564106315,
        0,
        0,
        1
      ],
      "name": "PC2max.obj",
      "children": [
        0
      ]
    }
  ],
  "bufferViews": [
    {
      "buffer": 0,
      "byteOffset": 0,
      "byteLength": 14256,
      "target": 34962,
      "byteStride": 12
    },
    {
      "buffer": 0,
      "byteOffset": 14256,
      "byteLength": 14256,
      "target": 34962,
      "byteStride": 12
    }
  ],
  "buffers": [
    {
      "byteLength": 28512,
      "uri": "data:application/octet-stream;base64,"
    }
  ],
  "accessors": [
    {
      "bufferView": 0,
      "componentType": 5126,
      "count": 1188,
      "max": [
        0.48414498567581177,
        0.09489399939775467,
        0.0654280036687851
      ],
      "min": [
        -0.2015320062637329,
        -0.09489399939775467,
        -0.10789799690246582
      ],
      "type": "VEC3"
    },
    {
      "bufferView": 1,
      "componentType": 5126,
      "count": 1188,
      "max": [
        1,
        1,
        1
      ],
      "min": [
        -1,
        -1,
        0
      ],
      "type": "VEC3"
    }
  ],
  "materials": [
    {
      "pbrMetallicRoughness": {
        "baseColorFactor": [
          0,
          0,
          0,
          1
        ],
        "metallicFactor": 0.5,
        "roughnessFactor": 0.5
      },
      "doubleSided": true
    }
  ],
  "meshes": [
    {
      "primitives": [
        {
          "mode": 4,
          "attributes": {
            "POSITION": 0,
            "NORMAL": 1
          },
          "material": 0
        }
      ]
    }
  ]
}